:SAMPLES-PER-SECOND 30
:FULLY-SPECIFIED
:DEGREES
435
root  34.1083 38.8061 8.02866 -175.141 -36.7216 172.57
RightUpLeg  10.5862 -21.5766 -24.6201
RightLeg  13.6924 -21.0176 -3.9514
RightFoot  -9.42713 -0.108566 2.48485
RightToes  5.82063e-011 0 -3.6325e-017
Spine  2.80769 -0.709201 4.55461
Spine1  10.4146 -0.383245 -1.64246
HEad  -7.20531 17.3966 -21.278
LeftShoulder1  0.0219589 3.4458 -31.939
LeftArm  3.82193 -0.598559 -36.0014
LeftForeArm  14.2081 -66.9458 -26.4506
LeftHand  0.0713433 2.46518 -3.44047
RightShoulder  -0.437683 -4.81962 26.3632
RightArm  -6.36373 -23.4243 28.5735
RightForeArm  77.5264 78.3756 104.338
RightHand  -0.220131 3.74458 -3.04608
LeftUpLeg  -12.7898 14.6998 -6.27919
LeftLeg  15.7724 11.5721 2.09419
LeftFoot  -3.79353 -0.347976 5.60413
LeftToes  1.81573e-012 2.54609e-010 -3.45981e-011
436
root  33.1988 38.7109 7.66202 -176.164 -40.2906 172.345
RightUpLeg  6.92539 -14.9076 -21.0423
RightLeg  20.5247 -8.80138 -4.03527
RightFoot  -11.894 -0.0650001 -2.64696
RightToes  5.82063e-011 0 -3.6325e-017
Spine  3.87026 -0.0336508 3.89326
Spine1  10.7986 0.236593 -1.73023
HEad  -6.52762 15.564 -20.5061
LeftShoulder1  0.107017 3.22104 -31.7121
LeftArm  2.29132 -0.236142 -36.6933
LeftForeArm  15.4076 -67.047 -26.4356
LeftHand  0.0950935 2.31797 -4.20137
RightShoulder  -0.441867 -4.82982 26.4229
RightArm  -6.63694 -21.8017 29.7425
RightForeArm  74.1703 78.506 101.193
RightHand  -0.352078 3.63507 -4.78495
LeftUpLeg  -10.8955 13.9348 -6.81074
LeftLeg  17.5433 9.09044 2.16463
LeftFoot  -6.21432 -0.224666 5.8055
LeftToes  1.81573e-012 2.54609e-010 -3.45981e-011
437
root  32.3619 38.5693 7.26411 -176.271 -43.7964 171.714
RightUpLeg  2.89561 -9.61356 -18.1263
RightLeg  26.9692 -2.19273 -1.5122
RightFoot  -13.9746 -0.0630234 1.67027
RightToes  5.82063e-011 0 -3.6325e-017
Spine  4.60788 0.185717 2.5648
Spine1  10.703 0.301739 -2.16729
HEad  -5.26842 15.6075 -19.8775
LeftShoulder1  0.0980735 3.24417 -31.6887
LeftArm  0.209028 0.452334 -36.6248
LeftForeArm  16.0414 -67.308 -26.7526
LeftHand  0.096681 2.62724 -4.80222
RightShoulder  -0.486735 -4.94451 26.9153
RightArm  -5.55047 -18.8459 30.3847
RightForeArm  67.8599 78.6878 94.6603
RightHand  -0.331908 3.31574 -4.66807
LeftUpLeg  -9.56315 11.5746 -7.37368
LeftLeg  19.3016 8.11814 2.12968
LeftFoot  -8.4959 -0.0851054 5.51806
LeftToes  1.81573e-012 2.54609e-010 -3.45981e-011
438
root  31.4446 38.6117 6.79147 -176.092 -48.3057 171.531
RightUpLeg  -1.71814 -6.8402 -14.7028
RightLeg  32.8408 -2.41514 -1.95639
RightFoot  -14.2581 -0.0504446 1.81381
RightToes  5.82063e-011 0 -3.6325e-017
Spine  4.24976 -0.310636 1.43196
Spine1  10.7458 -0.4632 -1.69969
HEad  -4.20239 14.4538 -17.8534
LeftShoulder1  0.14552 3.11456 -31.2531
LeftArm  -2.20031 1.50751 -36.6969
LeftForeArm  16.2281 -67.3802 -26.8464
LeftHand  0.101159 2.38884 -4.54012
RightShoulder  -0.561573 -5.14425 27.4674
RightArm  -4.28229 -15.4916 31.1469
RightForeArm  59.2636 78.696 86.3166
RightHand  -0.318814 2.98257 -4.64849
LeftUpLeg  -7.54603 8.09787 -7.61051
LeftLeg  18.8479 7.37762 1.78394
LeftFoot  -9.77153 -0.0199894 5.73567
LeftToes  1.81573e-012 2.54609e-010 -3.45981e-011
439
root  30.481 38.7354 6.24102 -176.292 -52.0853 171.78
RightUpLeg  -6.42737 -4.6716 -11.5038
RightLeg  36.2854 -4.33213 -3.64556
RightFoot  -14.0202 -0.0686468 1.12632
RightToes  5.82063e-011 0 -3.6325e-017
Spine  3.63863 -0.611193 0.400317
Spine1  11.204 -1.04291 -0.801971
HEad  -3.78269 13.7968 -16.0286
LeftShoulder1  0.115581 3.18939 -30.6377
LeftArm  -4.31866 2.64648 -36.9134
LeftForeArm  17.4868 -68.1934 -28.0196
LeftHand  0.116489 2.4536 -5.26457
RightShoulder  -0.511032 -5.01785 26.928
RightArm  -3.91321 -13.3736 33.168
RightForeArm  53.638 78.5678 80.9628
RightHand  -0.321312 3.29383 -4.50737
LeftUpLeg  -4.78009 6.06043 -7.25532
LeftLeg  17.3032 5.85689 0.952862
LeftFoot  -10.7669 0.0353512 5.93198
LeftToes  1.81573e-012 2.54609e-010 -3.45981e-011
440
root  29.5168 38.8481 5.70457 -176.943 -55.713 172.688
RightUpLeg  -10.8866 -3.83736 -8.71145
RightLeg  36.1324 -4.83497 -4.03581
RightFoot  -13.5314 -0.0692244 1.16165
RightToes  5.82063e-011 0 -3.6325e-017
Spine  3.96285 -0.930991 0.461871
Spine1  10.4286 -1.39922 -0.580125
HEad  -3.41294 12.8396 -14.3415
LeftShoulder1  0.0910819 3.25491 -30.4644
LeftArm  -5.42546 3.14288 -36.417
LeftForeArm  17.8353 -68.866 -29.1944
LeftHand  0.0798223 2.68593 -4.1769
RightShoulder  -0.448122 -4.84276 26.5775
RightArm  -4.08163 -12.3891 34.7884
RightForeArm  51.3868 78.4873 78.9609
RightHand  -0.434368 4.22701 -5.52338
LeftUpLeg  -2.27487 4.87787 -6.52051
LeftLeg  16.0089 3.55425 0.397438
LeftFoot  -11.6328 0.0854978 6.25393
LeftToes  1.81573e-012 2.54609e-010 -3.45981e-011
441
root  28.4863 38.9421 5.11101 -177.812 -58.0637 173.647
RightUpLeg  -14.5601 -2.56008 -6.65444
RightLeg  32.2565 -4.00438 -2.97285
RightFoot  -12.4389 -0.0710877 1.45582
RightToes  5.82063e-011 0 -3.6325e-017
Spine  4.01421 -0.541482 1.14103
Spine1  10.2562 -0.814927 -0.831076
HEad  -3.47003 11.0056 -13.4379
LeftShoulder1  0.129661 3.14824 -30.3824
LeftArm  -5.88065 3.18455 -35.8074
LeftForeArm  18.4552 -69.6179 -30.6073
LeftHand  0.057204 2.94815 -3.63027
RightShoulder  -0.459009 -4.88363 26.3881
RightArm  -4.93935 -12.3694 36.0352
RightForeArm  54.8446 78.6061 81.7887
RightHand  -0.393654 3.56358 -5.35449
LeftUpLeg  0.689868 5.03787 -5.56183
LeftLeg  14.3591 1.21664 -0.202202
LeftFoot  -12.4416 0.135648 6.30706
LeftToes  1.81573e-012 2.54609e-010 -3.45981e-011
442
root  27.4177 38.9696 4.50201 -178.685 -60.9319 174.083
RightUpLeg  -16.649 -1.52573 -5.67003
RightLeg  25.721 -3.36022 -1.93929
RightFoot  -11.1759 -0.0784624 2.2741
RightToes  5.82063e-011 0 -3.6325e-017
Spine  4.59598 -0.450088 1.52973
Spine1  10.0928 -0.552301 -1.0323
HEad  -3.86321 9.70056 -12.3047
LeftShoulder1  0.160303 3.05759 -29.7894
LeftArm  -6.4613 3.36505 -36.0263
LeftForeArm  20.5921 -70.5769 -32.3403
LeftHand  0.0629851 3.1648 -4.34085
RightShoulder  -0.474061 -4.93128 26.3518
RightArm  -5.83831 -12.2271 37.1648
RightForeArm  57.3567 78.6575 84.7417
RightHand  -0.405783 3.51629 -5.53841
LeftUpLeg  4.1022 5.45168 -4.73594
LeftLeg  12.8186 -1.81939 -0.618198
LeftFoot  -13.0819 0.185123 6.97501
LeftToes  1.81573e-012 2.54609e-010 -3.45981e-011
443
root  26.2839 38.9176 3.907 -178.999 -64.5089 174.144
RightUpLeg  -17.9313 -1.09376 -5.5699
RightLeg  17.5787 -3.35852 -1.50553
RightFoot  -9.43817 -0.1079 2.69168
RightToes  5.82063e-011 0 -3.6325e-017
Spine  4.82223 -0.803013 2.24653
Spine1  10.0073 -0.692239 -1.49191
HEad  -4.40957 7.68422 -11.7399
LeftShoulder1  0.149885 3.08768 -29.8986
LeftArm  -6.59852 2.71083 -35.6738
LeftForeArm  21.2299 -70.9247 -33.0735
LeftHand  0.0787094 2.87809 -4.51817
RightShoulder  -0.482724 -4.95202 26.4861
RightArm  -6.56813 -11.888 37.6058
RightForeArm  59.8154 78.6808 87.5115
RightHand  -0.394468 3.62957 -5.34566
LeftUpLeg  7.09207 5.97874 -3.76913
LeftLeg  11.7195 -5.71838 -1.08734
LeftFoot  -13.9447 0.263002 7.86494
LeftToes  1.81573e-012 2.54609e-010 -3.45981e-011
444
root  25.1089 38.8024 3.31286 -179.02 -68.8506 173.492
RightUpLeg  -17.9709 -3.28848 -5.77469
RightLeg  9.13964 -0.714293 -1.19209
RightFoot  -7.36473 -0.19842 4.0683
RightToes  5.82063e-011 0 -3.6325e-017
Spine  5.55202 -1.48299 2.35533
Spine1  9.76408 -1.41169 -1.14058
HEad  -4.72251 6.22775 -11.9938
LeftShoulder1  0.163137 3.0519 -29.9667
LeftArm  -6.85701 2.23063 -35.8267
LeftForeArm  22.1793 -71.3197 -33.8931
LeftHand  0.0841805 2.64655 -4.29217
RightShoulder  -0.47075 -4.91691 26.4379
RightArm  -7.40544 -11.5197 37.8382
RightForeArm  63.3089 78.7123 90.5118
RightHand  -0.360905 2.64377 -5.40705
LeftUpLeg  10.0973 6.08798 -2.90611
LeftLeg  11.3994 -10.0261 -1.1632
LeftFoot  -14.9707 0.365811 8.67695
LeftToes  1.81573e-012 2.54609e-010 -3.45981e-011
